<?xml version="1.0" encoding="UTF-8" standalone="no"?>
<svg
   xmlns:dc="http://purl.org/dc/elements/1.1/"
   xmlns:cc="http://creativecommons.org/ns#"
   xmlns:rdf="http://www.w3.org/1999/02/22-rdf-syntax-ns#"
   xmlns:svg="http://www.w3.org/2000/svg"
   xmlns="http://www.w3.org/2000/svg"
   xmlns:sodipodi="http://sodipodi.sourceforge.net/DTD/sodipodi-0.dtd"
   xmlns:inkscape="http://www.inkscape.org/namespaces/inkscape"
   id="svg8"
   version="1.1"
   viewBox="0 0 154.8501 35.18606"
   height="132.98668"
   width="585.26019"
   sodipodi:docname="text.svg"
   inkscape:version="0.92.5 (2060ec1f9f, 2020-04-08)">
  <sodipodi:namedview
     pagecolor="#ffffff"
     bordercolor="#666666"
     borderopacity="1"
     objecttolerance="10"
     gridtolerance="10"
     guidetolerance="10"
     inkscape:pageopacity="0"
     inkscape:pageshadow="2"
     inkscape:window-width="1721"
     inkscape:window-height="799"
     id="namedview107"
     showgrid="false"
     inkscape:zoom="1.1343725"
     inkscape:cx="447.38319"
     inkscape:cy="-37.180605"
     inkscape:window-x="0"
     inkscape:window-y="0"
     inkscape:window-maximized="0"
     inkscape:current-layer="svg8"
     fit-margin-top="0"
     fit-margin-left="0"
     fit-margin-right="0"
     fit-margin-bottom="0" />
  <defs
     id="defs2">
    <marker
       style="overflow:visible"
       id="marker5584"
       refX="0"
       refY="0"
       orient="auto">
      <path
         transform="scale(0.2)"
         style="fill:#4d4d4d;fill-opacity:1;fill-rule:evenodd;stroke:#4d4d4d;stroke-width:1.00000003pt;stroke-opacity:1"
         d="M 0,-7.0710768 -7.0710894,0 0,7.0710589 7.0710462,0 Z"
         id="path5582"
         inkscape:connector-curvature="0" />
    </marker>
    <marker
       style="overflow:visible"
       id="DiamondS"
       refX="0"
       refY="0"
       orient="auto">
      <path
         transform="scale(0.2)"
         style="fill:#4d4d4d;fill-opacity:1;fill-rule:evenodd;stroke:#4d4d4d;stroke-width:1.00000003pt;stroke-opacity:1"
         d="M 0,-7.0710768 -7.0710894,0 0,7.0710589 7.0710462,0 Z"
         id="path5359"
         inkscape:connector-curvature="0" />
    </marker>
    <marker
       style="overflow:visible"
       id="DotL"
       refX="0"
       refY="0"
       orient="auto">
      <path
         transform="matrix(0.8,0,0,0.8,5.92,0.8)"
         style="fill:#4d4d4d;fill-opacity:1;fill-rule:evenodd;stroke:#4d4d4d;stroke-width:1.00000003pt;stroke-opacity:1"
         d="m -2.5,-1 c 0,2.76 -2.24,5 -5,5 -2.76,0 -5,-2.24 -5,-5 0,-2.76 2.24,-5 5,-5 2.76,0 5,2.24 5,5 z"
         id="path5335"
         inkscape:connector-curvature="0" />
    </marker>
    <clipPath
       id="clipPath81511"
       clipPathUnits="userSpaceOnUse">
      <rect
         y="-1.4835175"
         x="934.65692"
         height="12.832292"
         width="26.19375"
         id="rect81513"
         style="opacity:1;fill:#e7e8e9;fill-opacity:1;stroke:#a7a9ac;stroke-width:0.52916664;stroke-linecap:square;stroke-linejoin:miter;stroke-miterlimit:4;stroke-dasharray:none;stroke-dashoffset:5.99999952;stroke-opacity:1" />
    </clipPath>
  </defs>
  <metadata
     id="metadata5">
    <rdf:RDF>
      <cc:Work
         rdf:about="">
        <dc:format>image/svg+xml</dc:format>
        <dc:type
           rdf:resource="http://purl.org/dc/dcmitype/StillImage" />
        <dc:title></dc:title>
      </cc:Work>
    </rdf:RDF>
  </metadata>
  <g
     id="g163426"
     transform="translate(-1174.1878,513.68961)" />
  <g
     transform="translate(-1238.5626,217.67684)"
     id="g10819"
     inkscape:export-filename="images/text.png"
     inkscape:export-xdpi="95.599998"
     inkscape:export-ydpi="95.599998">
    <g
       aria-label="podman"
       style="font-style:normal;font-weight:normal;font-size:37.59195328px;line-height:22.55517006px;font-family:sans-serif;letter-spacing:0px;word-spacing:0px;fill:#892ca0;fill-opacity:1;stroke:none;stroke-width:0.26458332px;stroke-linecap:butt;stroke-linejoin:miter;stroke-opacity:1"
       id="text10671">
      <path
         inkscape:connector-curvature="0"
         d="m 1249.8778,-209.9329 c -3.1202,0 -5.526,1.27812 -6.9921,3.60883 v -3.45846 h -4.3231 v 27.29175 h 4.3231 v -10.75129 c 1.4661,2.3307 3.8719,3.60882 7.0673,3.60882 5.7139,0 9.4731,-4.09752 9.4731,-10.07464 0,-6.0899 -3.8719,-10.22501 -9.5483,-10.22501 z m -0.9022,16.61564 c -3.5713,0 -6.0899,-2.66903 -6.0899,-6.541 0,-3.75919 2.5186,-6.46581 6.0899,-6.46581 3.5712,0 6.0899,2.74421 6.0899,6.46581 0,3.83438 -2.5187,6.541 -6.0899,6.541 z"
         style="font-style:normal;font-variant:normal;font-weight:normal;font-stretch:normal;font-family:Montserrat;-inkscape-font-specification:Montserrat;fill:#892ca0;fill-opacity:1;stroke-width:0.26458332px"
         id="path80700" />
      <path
         inkscape:connector-curvature="0"
         d="m 1272.4964,-209.9329 c -6.2027,0 -10.4506,4.09752 -10.4506,10.14983 0,6.01471 4.2479,10.14982 10.4506,10.14982 6.1651,0 10.413,-4.13511 10.413,-10.14982 0,-6.05231 -4.2479,-10.14983 -10.413,-10.14983 z m 0,3.7216 c 3.5712,0 6.0899,2.63144 6.0899,6.46582 0,3.87197 -2.5187,6.50341 -6.0899,6.50341 -3.6088,0 -6.1275,-2.63144 -6.1275,-6.50341 0,-3.83438 2.5187,-6.46582 6.1275,-6.46582 z"
         style="font-style:normal;font-variant:normal;font-weight:normal;font-stretch:normal;font-family:Montserrat;-inkscape-font-specification:Montserrat;fill:#892ca0;fill-opacity:1;stroke-width:0.26458332px"
         id="path80702" />
      <path
         inkscape:connector-curvature="0"
         d="m 1302.1564,-217.67684 v 11.35277 c -1.466,-2.33071 -3.8719,-3.64642 -7.1048,-3.64642 -5.6388,0 -9.5108,4.09752 -9.5108,10.11223 0,6.0899 3.8344,10.2626 9.5859,10.2626 3.1954,0 5.6012,-1.27812 7.0297,-3.60882 v 3.42086 h 4.3231 v -27.89322 z m -6.1275,24.47236 c -3.6464,0 -6.1274,-2.70662 -6.165,-6.50341 0.038,-3.83438 2.5562,-6.57859 6.165,-6.57859 3.6089,0 6.1275,2.70662 6.1275,6.57859 0,3.79679 -2.5186,6.50341 -6.1275,6.50341 z"
         style="font-style:normal;font-variant:normal;font-weight:normal;font-stretch:normal;font-family:Montserrat;-inkscape-font-specification:Montserrat;fill:#892ca0;fill-opacity:1;stroke-width:0.26458332px"
         id="path80704" />
      <path
         inkscape:connector-curvature="0"
         d="m 1339.1334,-209.9329 c -3.6464,0 -6.3154,1.46608 -7.5936,4.81177 -0.9398,-3.04495 -3.3832,-4.81177 -6.9545,-4.81177 -3.3081,0 -5.8643,1.20294 -7.2552,4.02234 v -3.87197 h -4.2855 v 19.99891 h 4.2855 v -9.88668 c 0,-3.49605 2.1051,-6.12749 5.5636,-6.24026 2.9322,0 4.699,1.842 4.699,4.88695 v 11.23999 h 4.3231 v -9.88668 c 0,-3.49605 2.0675,-6.12749 5.4884,-6.24026 2.9321,0 4.7366,1.842 4.7366,4.88695 v 11.23999 h 4.323 v -12.44293 c 0,-4.77418 -2.7442,-7.70635 -7.3304,-7.70635 z"
         style="fill:#60605b"
         id="path80706" />
      <path
         inkscape:connector-curvature="0"
         d="m 1368.4916,-189.78362 -0.038,-13.11959 c -0.038,-4.39826 -2.9322,-7.02969 -8.0823,-7.02969 -3.7968,0 -5.8268,0.86461 -8.6086,2.51866 l 1.7669,3.00736 c 1.9923,-1.35332 3.9847,-2.02997 5.9019,-2.02997 3.1577,0 4.7742,1.50368 4.7742,4.02234 v 0.60147 h -6.0523 c -4.8118,0.0376 -7.556,2.36829 -7.556,6.01471 0,3.53365 2.7066,6.20267 7.0297,6.20267 2.8946,0 5.1877,-0.86461 6.6162,-2.63143 v 2.44347 z m -9.9619,-3.2329 c -2.4059,0 -3.872,-1.16535 -3.872,-2.96977 0,-1.91719 1.3157,-2.66903 4.1351,-2.66903 h 5.4133 v 1.84201 c -0.2256,2.18033 -2.5939,3.79679 -5.6764,3.79679 z"
         style="fill:#60605b"
         id="path80708" />
      <path
         inkscape:connector-curvature="0"
         d="m 1385.9695,-209.9329 c -3.3833,0 -5.9396,1.20294 -7.3681,3.98474 v -3.83437 h -4.323 v 19.99891 h 4.323 v -10.63852 c 0.3008,-3.12013 2.3683,-5.41324 5.6764,-5.45083 3.0074,0 4.8118,1.842 4.8118,4.84936 v 11.23999 h 4.3231 v -12.44293 c 0,-4.77418 -2.7818,-7.70635 -7.4432,-7.70635 z"
         style="fill:#60605b"
         id="path80710" />
    </g>
  </g>
</svg>
