<svg xmlns="http://www.w3.org/2000/svg" viewBox="0 0 67.733 67.733" height="256" width="256"><defs><clipPath id="a" clipPathUnits="userSpaceOnUse"><path style="opacity:1;fill:#e7e8e9;fill-opacity:1;stroke:#a7a9ac;stroke-width:.52916664;stroke-linecap:square;stroke-linejoin:miter;stroke-miterlimit:4;stroke-dasharray:none;stroke-dashoffset:5.99999952;stroke-opacity:1" d="M934.657-1.484h26.194v12.832h-26.194z"/></clipPath></defs><path d="M33.977 63.204 9.854 51.663 3.828 25.586 20.438 4.61l26.736-.08 16.73 20.876-5.873 26.112Z" style="opacity:1;fill:#faffff;fill-opacity:1;stroke:#892ca0;stroke-width:1.32291675;stroke-linecap:round;stroke-linejoin:round;stroke-miterlimit:4;stroke-dasharray:none;stroke-opacity:1"/><path d="M36.491 32.516h15.903M39.137 35.823h15.902" style="fill:none;fill-rule:evenodd;stroke:#3c6eb4;stroke-width:1.32291663;stroke-linecap:butt;stroke-linejoin:miter;stroke-miterlimit:4;stroke-dasharray:none;stroke-opacity:1"/><g transform="matrix(1.43756 0 0 1.43876 -1348.395 34.647)" style="stroke-width:.86916679"><path style="fill:#ccc;fill-opacity:1;fill-rule:evenodd;stroke:#000;stroke-width:.68990111;stroke-linecap:butt;stroke-linejoin:miter;stroke-miterlimit:4;stroke-dasharray:none;stroke-opacity:1" d="M973.104 3.398c-2.309-3.742-1.792-7.352-2.883-12.51-.6-3.185-2.622-5.815-5.254-6.778-2.172-.757-6.683-.76-8.595 0-2.633.963-4.655 3.593-5.254 6.778-1.092 5.158-.575 8.768-2.883 12.51"/><ellipse ry="1.175" rx="1.116" cy="-4.107" cx="966.564" style="opacity:1;fill:#e7e8e9;fill-opacity:1;stroke:none;stroke-width:.68990111;stroke-linecap:square;stroke-linejoin:miter;stroke-miterlimit:4;stroke-dasharray:none;stroke-dashoffset:5.99999952;stroke-opacity:1"/><ellipse style="opacity:1;fill:#e7e8e9;fill-opacity:1;stroke:none;stroke-width:.68990111;stroke-linecap:square;stroke-linejoin:miter;stroke-miterlimit:4;stroke-dasharray:none;stroke-dashoffset:5.99999952;stroke-opacity:1" cx="955.287" cy="-4.107" rx="1.116" ry="1.175"/><g style="stroke:#a7a9ac;stroke-width:.51800275;stroke-miterlimit:4;stroke-dasharray:none"><path style="fill:none;fill-rule:evenodd;stroke:#a7a9ac;stroke-width:.51800275;stroke-linecap:butt;stroke-linejoin:miter;stroke-miterlimit:4;stroke-dasharray:none;stroke-opacity:1" d="m956.419-5.981-4.67 1.251M956.948-5.254l-4.697 2.712M957.345-4.394 952.582.37M957.543-3.27 955.11.947" transform="matrix(.8879 0 0 .8879 108.022 .558)"/></g><g style="stroke:#a7a9ac;stroke-width:.51800275;stroke-miterlimit:4;stroke-dasharray:none"><path d="m956.419-5.981-4.67 1.251M956.948-5.254l-4.697 2.712M957.345-4.394 952.582.37M957.543-3.27 955.11.947" style="fill:none;fill-rule:evenodd;stroke:#a7a9ac;stroke-width:.51800275;stroke-linecap:butt;stroke-linejoin:miter;stroke-miterlimit:4;stroke-dasharray:none;stroke-opacity:1" transform="matrix(-.8879 0 0 .8879 1814.158 .558)"/></g><ellipse ry="3.406" rx="3.583" cy="-4.929" cx="961.043" style="opacity:1;fill:#fff;fill-opacity:1;stroke:#60605b;stroke-width:.68990111;stroke-linecap:square;stroke-linejoin:miter;stroke-miterlimit:4;stroke-dasharray:none;stroke-dashoffset:5.99999952;stroke-opacity:1"/><ellipse ry="1.769" rx="1.725" cy="-7.841" cx="-966.527" style="fill:#000;fill-opacity:1;stroke:#892ca0;stroke-width:.68990111;stroke-linecap:square;stroke-linejoin:miter;stroke-miterlimit:4;stroke-dasharray:none;stroke-dashoffset:0;stroke-opacity:1" transform="scale(-1 1)"/><path d="M968.074-11.544a1.973 1.973 0 0 0-1.458-.758 1.97 1.97 0 0 0-1.452.562" style="fill:none;fill-opacity:1;stroke:#000;stroke-width:.68990105;stroke-linecap:square;stroke-linejoin:miter;stroke-miterlimit:4;stroke-dasharray:none;stroke-dashoffset:0;stroke-opacity:1"/><g style="stroke-width:.77700406;stroke-miterlimit:4;stroke-dasharray:none"><g style="stroke-width:.77700406"><path d="m962.306-5.783.1 1.984s1.587 1.423 2.513-.033c0 0-.1-.827-.166-1.091M962.288-5.783l-.1 1.984s-1.587 1.423-2.513-.033c0 0 .099-.827.165-1.091" style="fill:none;fill-rule:evenodd;stroke:#000;stroke-width:.77700406;stroke-linecap:butt;stroke-linejoin:miter;stroke-miterlimit:4;stroke-dasharray:none;stroke-opacity:1" transform="matrix(.8879 0 0 .8879 106.612 -.382)"/></g></g><path d="M962.572-5.544c-.12-.31-.12-.933-.48-.933-.361 0-.695-.233-1.05-.233-.354 0-.687.233-1.047.233-.36 0-.36.622-.481.933-.12.311 1.529 1.322 1.529 1.322s1.649-1.01 1.529-1.322z" style="fill:gray;fill-opacity:1;stroke:#000;stroke-width:.68990111;stroke-linecap:square;stroke-linejoin:miter;stroke-miterlimit:4;stroke-dasharray:none;stroke-dashoffset:0;stroke-opacity:1"/><ellipse style="fill:#000;fill-opacity:1;stroke:#892ca0;stroke-width:.68990111;stroke-linecap:square;stroke-linejoin:miter;stroke-miterlimit:4;stroke-dasharray:none;stroke-dashoffset:0;stroke-opacity:1" cx="955.36" cy="-7.841" rx="1.725" ry="1.769"/><ellipse ry=".881" rx=".848" cy="-8.338" cx="954.785" style="fill:#fff;fill-opacity:1;stroke:none;stroke-width:.68990111;stroke-linecap:square;stroke-linejoin:miter;stroke-miterlimit:4;stroke-dasharray:none;stroke-dashoffset:0;stroke-opacity:1"/><path style="fill:none;fill-opacity:1;stroke:#000;stroke-width:.68990105;stroke-linecap:square;stroke-linejoin:miter;stroke-miterlimit:4;stroke-dasharray:none;stroke-dashoffset:0;stroke-opacity:1" d="M953.814-11.544a1.973 1.973 0 0 1 1.458-.758 1.97 1.97 0 0 1 1.452.562"/><ellipse style="fill:#fff;fill-opacity:1;stroke:none;stroke-width:.68990111;stroke-linecap:square;stroke-linejoin:miter;stroke-miterlimit:4;stroke-dasharray:none;stroke-dashoffset:0;stroke-opacity:1" cx="965.947" cy="-8.338" rx=".848" ry=".881"/></g><path style="fill:none;fill-rule:evenodd;stroke:#3c6eb4;stroke-width:1.32291663;stroke-linecap:butt;stroke-linejoin:miter;stroke-miterlimit:4;stroke-dasharray:none;stroke-opacity:1" d="M16.777 39.464h41.16"/><g clip-path="url(#a)" transform="matrix(1.0381 0 0 1.0381 -962.8 32.318)" style="stroke-width:1.20411575"><path style="fill:#ccc;fill-opacity:1;fill-rule:evenodd;stroke:#000;stroke-width:.95576686;stroke-linecap:butt;stroke-linejoin:miter;stroke-miterlimit:4;stroke-dasharray:none;stroke-opacity:1" d="M958.316 13.737c-.262-1.782-.39-3.72-.873-6.001-.53-2.818-2.322-5.143-4.654-5.995-1.924-.67-5.92-.672-7.613 0-2.332.852-4.124 3.177-4.654 5.995-.484 2.28-.611 4.22-.873 6.001"/><ellipse ry="1.039" rx=".988" cy="12.162" cx="954.204" style="opacity:1;fill:#e7e8e9;fill-opacity:1;stroke:none;stroke-width:.95576686;stroke-linecap:square;stroke-linejoin:miter;stroke-miterlimit:4;stroke-dasharray:none;stroke-dashoffset:5.99999952;stroke-opacity:1"/><ellipse style="opacity:1;fill:#e7e8e9;fill-opacity:1;stroke:none;stroke-width:.95576686;stroke-linecap:square;stroke-linejoin:miter;stroke-miterlimit:4;stroke-dasharray:none;stroke-dashoffset:5.99999952;stroke-opacity:1" cx="944.215" cy="12.162" rx=".988" ry="1.039"/><g style="stroke:#a7a9ac;stroke-width:.81074655;stroke-miterlimit:4;stroke-dasharray:none"><path style="fill:none;fill-rule:evenodd;stroke:#a7a9ac;stroke-width:.81074655;stroke-linecap:butt;stroke-linejoin:miter;stroke-miterlimit:4;stroke-dasharray:none;stroke-opacity:1" d="m956.419-5.981-4.67 1.251M956.948-5.254l-4.697 2.712M957.345-4.394 952.582.37M957.543-3.27 955.11.947" transform="matrix(.78652 0 0 .7853 193.685 16.288)"/></g><g style="stroke:#a7a9ac;stroke-width:.81074655;stroke-miterlimit:4;stroke-dasharray:none"><path d="m956.419-5.981-4.67 1.251M956.948-5.254l-4.697 2.712M957.345-4.394 952.582.37M957.543-3.27 955.11.947" style="fill:none;fill-rule:evenodd;stroke:#a7a9ac;stroke-width:.81074655;stroke-linecap:butt;stroke-linejoin:miter;stroke-miterlimit:4;stroke-dasharray:none;stroke-opacity:1" transform="matrix(-.78652 0 0 .7853 1705.025 16.288)"/></g><ellipse ry="3.013" rx="3.174" cy="11.435" cx="949.313" style="opacity:1;fill:#fff;fill-opacity:1;stroke:#60605b;stroke-width:.95576686;stroke-linecap:square;stroke-linejoin:miter;stroke-miterlimit:4;stroke-dasharray:none;stroke-dashoffset:5.99999952;stroke-opacity:1"/><ellipse ry="1.565" rx="1.528" cy="8.86" cx="-954.172" style="fill:#000;fill-opacity:1;stroke:#892ca0;stroke-width:.95576686;stroke-linecap:square;stroke-linejoin:miter;stroke-miterlimit:4;stroke-dasharray:none;stroke-dashoffset:0;stroke-opacity:1" transform="scale(-1 1)"/><path d="M955.542 5.584a1.75 1.75 0 0 0-1.292-.67c-.472-.02-.95.165-1.286.497" style="fill:none;fill-opacity:1;stroke:#000;stroke-width:.9557668;stroke-linecap:square;stroke-linejoin:miter;stroke-miterlimit:4;stroke-dasharray:none;stroke-dashoffset:0;stroke-opacity:1"/><g style="stroke-width:1.21611977;stroke-miterlimit:4;stroke-dasharray:none"><g style="stroke-width:1.21611977"><path d="m962.306-5.783.1 1.984s1.587 1.423 2.513-.033c0 0-.1-.827-.166-1.091M962.288-5.783l-.1 1.984s-1.587 1.423-2.513-.033c0 0 .099-.827.165-1.091" style="fill:none;fill-rule:evenodd;stroke:#000;stroke-width:1.21611977;stroke-linecap:butt;stroke-linejoin:miter;stroke-miterlimit:4;stroke-dasharray:none;stroke-opacity:1" transform="matrix(.78652 0 0 .7853 192.436 15.457)"/></g></g><path d="M950.668 10.892c-.107-.275-.107-.826-.426-.826-.32 0-.615-.206-.929-.206-.314 0-.609.206-.928.206-.32 0-.32.55-.426.826-.106.275 1.354 1.169 1.354 1.169s1.461-.894 1.355-1.17z" style="fill:gray;fill-opacity:1;stroke:#000;stroke-width:.95576686;stroke-linecap:square;stroke-linejoin:miter;stroke-miterlimit:4;stroke-dasharray:none;stroke-dashoffset:0;stroke-opacity:1"/><ellipse style="fill:#000;fill-opacity:1;stroke:#892ca0;stroke-width:.95576686;stroke-linecap:square;stroke-linejoin:miter;stroke-miterlimit:4;stroke-dasharray:none;stroke-dashoffset:0;stroke-opacity:1" cx="944.28" cy="8.86" rx="1.528" ry="1.565"/><ellipse ry=".78" rx=".752" cy="8.42" cx="943.77" style="fill:#fff;fill-opacity:1;stroke:none;stroke-width:.95576686;stroke-linecap:square;stroke-linejoin:miter;stroke-miterlimit:4;stroke-dasharray:none;stroke-dashoffset:0;stroke-opacity:1"/><path style="fill:none;fill-opacity:1;stroke:#000;stroke-width:.9557668;stroke-linecap:square;stroke-linejoin:miter;stroke-miterlimit:4;stroke-dasharray:none;stroke-dashoffset:0;stroke-opacity:1" d="M942.91 5.584a1.75 1.75 0 0 1 1.291-.67c.473-.02.95.165 1.287.497"/><ellipse style="fill:#fff;fill-opacity:1;stroke:none;stroke-width:.95576686;stroke-linecap:square;stroke-linejoin:miter;stroke-miterlimit:4;stroke-dasharray:none;stroke-dashoffset:0;stroke-opacity:1" cx="953.762" cy="8.529" rx=".752" ry=".78"/></g><path d="M10.824 44.756h24.789M22.6 49.714h34.378" style="fill:none;fill-rule:evenodd;stroke:#3c6eb4;stroke-width:1.32291663;stroke-linecap:butt;stroke-linejoin:miter;stroke-miterlimit:4;stroke-dasharray:none;stroke-opacity:1"/><g transform="matrix(1.25 0 0 1.25 -1167.512 35.202)"><path d="M977.469 11.11c-.233-1.582-.346-3.303-.775-5.328-.471-2.502-2.062-4.567-4.133-5.323-1.708-.595-5.256-.597-6.76 0-2.07.756-3.66 2.821-4.132 5.323-.43 2.025-.542 3.746-.775 5.329" style="fill:#ccc;fill-opacity:1;fill-rule:evenodd;stroke:#000;stroke-width:.79374999;stroke-linecap:butt;stroke-linejoin:miter;stroke-miterlimit:4;stroke-dasharray:none;stroke-opacity:1"/><ellipse style="opacity:1;fill:#e7e8e9;fill-opacity:1;stroke:none;stroke-width:.79374999;stroke-linecap:square;stroke-linejoin:miter;stroke-miterlimit:4;stroke-dasharray:none;stroke-dashoffset:5.99999952;stroke-opacity:1" cx="973.817" cy="9.712" rx=".878" ry=".922"/><ellipse ry=".922" rx=".878" cy="9.712" cx="964.948" style="opacity:1;fill:#e7e8e9;fill-opacity:1;stroke:none;stroke-width:.79374999;stroke-linecap:square;stroke-linejoin:miter;stroke-miterlimit:4;stroke-dasharray:none;stroke-dashoffset:5.99999952;stroke-opacity:1"/><g style="stroke:#a7a9ac;stroke-width:.7583214;stroke-miterlimit:4;stroke-dasharray:none"><path d="m955.746-3.96-4.67 1.252M956.275-3.232 951.58-.521" style="fill:none;fill-rule:evenodd;stroke:#a7a9ac;stroke-width:.7583214;stroke-linecap:butt;stroke-linejoin:miter;stroke-miterlimit:4;stroke-dasharray:none;stroke-opacity:1" transform="matrix(.69835 0 0 .69727 299.023 11.966)"/></g><g style="stroke:#a7a9ac;stroke-width:.7583214;stroke-miterlimit:4;stroke-dasharray:none"><path style="fill:none;fill-rule:evenodd;stroke:#a7a9ac;stroke-width:.7583214;stroke-linecap:butt;stroke-linejoin:miter;stroke-miterlimit:4;stroke-dasharray:none;stroke-opacity:1" d="m956.419-5.981-4.67 1.251M956.948-5.254l-4.697 2.712" transform="matrix(-.69835 0 0 .69727 1640.471 13.376)"/></g><ellipse style="opacity:1;fill:#fff;fill-opacity:1;stroke:#60605b;stroke-width:.79374999;stroke-linecap:square;stroke-linejoin:miter;stroke-miterlimit:4;stroke-dasharray:none;stroke-dashoffset:5.99999952;stroke-opacity:1" cx="969.475" cy="9.067" rx="2.818" ry="2.675"/><ellipse transform="scale(-1 1)" style="fill:#000;fill-opacity:1;stroke:#892ca0;stroke-width:.79374999;stroke-linecap:square;stroke-linejoin:miter;stroke-miterlimit:4;stroke-dasharray:none;stroke-dashoffset:0;stroke-opacity:1" cx="-973.789" cy="6.78" rx="1.357" ry="1.389"/><path style="fill:none;fill-opacity:1;stroke:#000;stroke-width:.79374993;stroke-linecap:square;stroke-linejoin:miter;stroke-miterlimit:4;stroke-dasharray:none;stroke-dashoffset:0;stroke-opacity:1" d="M975.006 3.872a1.553 1.553 0 0 0-1.147-.595 1.551 1.551 0 0 0-1.142.441"/><g style="stroke-width:1.13748205;stroke-miterlimit:4;stroke-dasharray:none"><g style="stroke-width:1.13748205"><path style="fill:none;fill-rule:evenodd;stroke:#000;stroke-width:1.13748205;stroke-linecap:butt;stroke-linejoin:miter;stroke-miterlimit:4;stroke-dasharray:none;stroke-opacity:1" d="m962.306-5.783.1 1.984s1.587 1.423 2.513-.033c0 0-.1-.827-.166-1.091M962.288-5.783l-.1 1.984s-1.587 1.423-2.513-.033c0 0 .099-.827.165-1.091" transform="matrix(.69835 0 0 .69727 297.445 12.638)"/></g></g><path style="fill:gray;fill-opacity:1;stroke:#000;stroke-width:.79374999;stroke-linecap:square;stroke-linejoin:miter;stroke-miterlimit:4;stroke-dasharray:none;stroke-dashoffset:0;stroke-opacity:1" d="M970.678 8.584c-.095-.244-.095-.733-.378-.733-.284 0-.546-.183-.825-.183-.279 0-.54.183-.824.183-.284 0-.284.489-.378.733-.095.244 1.202 1.038 1.202 1.038s1.297-.794 1.203-1.038z"/><ellipse ry="1.389" rx="1.357" cy="6.78" cx="965.006" style="fill:#000;fill-opacity:1;stroke:#892ca0;stroke-width:.79374999;stroke-linecap:square;stroke-linejoin:miter;stroke-miterlimit:4;stroke-dasharray:none;stroke-dashoffset:0;stroke-opacity:1"/><ellipse style="fill:#fff;fill-opacity:1;stroke:none;stroke-width:.79374999;stroke-linecap:square;stroke-linejoin:miter;stroke-miterlimit:4;stroke-dasharray:none;stroke-dashoffset:0;stroke-opacity:1" cx="964.553" cy="6.389" rx=".667" ry=".692"/><path d="M963.79 3.872a1.553 1.553 0 0 1 1.146-.595c.42-.018.844.146 1.142.441" style="fill:none;fill-opacity:1;stroke:#000;stroke-width:.79374993;stroke-linecap:square;stroke-linejoin:miter;stroke-miterlimit:4;stroke-dasharray:none;stroke-dashoffset:0;stroke-opacity:1"/><ellipse ry=".692" rx=".667" cy="6.48" cx="973.475" style="fill:#fff;fill-opacity:1;stroke:none;stroke-width:.79374999;stroke-linecap:square;stroke-linejoin:miter;stroke-miterlimit:4;stroke-dasharray:none;stroke-dashoffset:0;stroke-opacity:1"/></g><path d="M19.955 53.021h15.902M29.215 56.329h13.096" style="fill:none;fill-rule:evenodd;stroke:#3c6eb4;stroke-width:1.32291663;stroke-linecap:butt;stroke-linejoin:miter;stroke-miterlimit:4;stroke-dasharray:none;stroke-opacity:1"/></svg>